<svg xmlns="http://www.w3.org/2000/svg" viewBox="0 0 900 130" width="100%">
  <defs>
    <style>
      .s{animation:tw var(--d,3s) var(--dl,0s) infinite alternate ease-in-out}
      .nb{animation:nbp 5s var(--dl,0s) infinite alternate ease-in-out}
      .sh{animation:shoot var(--d,10s) var(--dl,0s) infinite linear;opacity:0}
      @keyframes tw{0%{opacity:.08}100%{opacity:1}}
      @keyframes nbp{0%{opacity:.1}100%{opacity:.3}}
      @keyframes shoot{
        0%{transform:translate(0,0);opacity:0}
        4%{opacity:.9}
        25%{opacity:0}
        100%{transform:translate(960px,70px);opacity:0}
      }
    </style>
    <radialGradient id="ng1" cx="27%" cy="42%" r="38%">
      <stop offset="0%" stop-color="#ec4899" stop-opacity=".35"/>
      <stop offset="100%" stop-color="#030014" stop-opacity="0"/>
    </radialGradient>
    <radialGradient id="ng2" cx="73%" cy="62%" r="32%">
      <stop offset="0%" stop-color="#7c3aed" stop-opacity=".4"/>
      <stop offset="100%" stop-color="#030014" stop-opacity="0"/>
    </radialGradient>
    <radialGradient id="ng3" cx="50%" cy="25%" r="22%">
      <stop offset="0%" stop-color="#a78bfa" stop-opacity=".25"/>
      <stop offset="100%" stop-color="#030014" stop-opacity="0"/>
    </radialGradient>
    <linearGradient id="sg" x1="0%" y1="50%" x2="100%" y2="50%">
      <stop offset="0%" stop-color="#ffffff" stop-opacity="0"/>
      <stop offset="40%" stop-color="#ffffff" stop-opacity=".9"/>
      <stop offset="100%" stop-color="#ffffff" stop-opacity="0"/>
    </linearGradient>
  </defs>

  <!-- void -->
  <rect width="900" height="130" fill="#030014"/>

  <!-- nebula glows -->
  <ellipse class="nb" cx="243" cy="55" rx="230" ry="95" fill="url(#ng1)"/>
  <ellipse class="nb" cx="657" cy="78" rx="210" ry="85" fill="url(#ng2)" style="--dl:2.5s"/>
  <ellipse class="nb" cx="450" cy="32" rx="170" ry="65" fill="url(#ng3)" style="--dl:1.2s"/>

  <!-- ── small stars (r 0.5–1) ── -->
  <circle class="s" cx="18"  cy="9"   r=".7" fill="#fff"    style="--d:3.1s;--dl:.3s"/>
  <circle class="s" cx="55"  cy="22"  r=".6" fill="#a78bfa" style="--d:4.2s;--dl:1.1s"/>
  <circle class="s" cx="92"  cy="7"   r=".5" fill="#fff"    style="--d:2.8s;--dl:.7s"/>
  <circle class="s" cx="130" cy="19"  r=".8" fill="#fff"    style="--d:5.3s;--dl:2.4s"/>
  <circle class="s" cx="167" cy="11"  r=".6" fill="#ec4899" style="--d:3.7s;--dl:.5s"/>
  <circle class="s" cx="205" cy="24"  r=".5" fill="#fff"    style="--d:4.6s;--dl:1.8s"/>
  <circle class="s" cx="242" cy="6"   r=".7" fill="#fff"    style="--d:3.0s;--dl:.9s"/>
  <circle class="s" cx="280" cy="18"  r=".9" fill="#a78bfa" style="--d:2.6s;--dl:1.5s"/>
  <circle class="s" cx="317" cy="13"  r=".6" fill="#fff"    style="--d:4.1s;--dl:.2s"/>
  <circle class="s" cx="355" cy="21"  r="1.1" fill="#fff"   style="--d:5.8s;--dl:2.9s"/>
  <circle class="s" cx="392" cy="8"   r=".5" fill="#ec4899" style="--d:3.4s;--dl:1.3s"/>
  <circle class="s" cx="430" cy="20"  r=".8" fill="#fff"    style="--d:4.9s;--dl:.6s"/>
  <circle class="s" cx="467" cy="12"  r=".6" fill="#fff"    style="--d:3.8s;--dl:2.0s"/>
  <circle class="s" cx="505" cy="24"  r=".7" fill="#a78bfa" style="--d:2.9s;--dl:.8s"/>
  <circle class="s" cx="542" cy="9"   r="1.0" fill="#fff"   style="--d:5.1s;--dl:1.7s"/>
  <circle class="s" cx="580" cy="17"  r=".5" fill="#fff"    style="--d:3.5s;--dl:.4s"/>
  <circle class="s" cx="617" cy="23"  r=".8" fill="#ec4899" style="--d:4.3s;--dl:2.1s"/>
  <circle class="s" cx="655" cy="10"  r=".6" fill="#fff"    style="--d:3.9s;--dl:1.0s"/>
  <circle class="s" cx="692" cy="19"  r=".9" fill="#a78bfa" style="--d:5.4s;--dl:.3s"/>
  <circle class="s" cx="730" cy="7"   r=".7" fill="#fff"    style="--d:3.2s;--dl:1.6s"/>
  <circle class="s" cx="767" cy="22"  r=".5" fill="#fff"    style="--d:4.7s;--dl:2.5s"/>
  <circle class="s" cx="805" cy="14"  r=".8" fill="#ec4899" style="--d:3.6s;--dl:.7s"/>
  <circle class="s" cx="842" cy="20"  r=".6" fill="#fff"    style="--d:4.0s;--dl:1.4s"/>
  <circle class="s" cx="880" cy="8"   r=".7" fill="#a78bfa" style="--d:2.7s;--dl:.9s"/>

  <!-- ── mid-band stars ── -->
  <circle class="s" cx="28"  cy="42"  r=".8" fill="#fff"    style="--d:4.4s;--dl:1.2s"/>
  <circle class="s" cx="74"  cy="55"  r="1.3" fill="#fff"   style="--d:5.7s;--dl:2.6s"/>
  <circle class="s" cx="119" cy="38"  r=".6" fill="#a78bfa" style="--d:3.3s;--dl:.5s"/>
  <circle class="s" cx="164" cy="50"  r=".9" fill="#fff"    style="--d:4.8s;--dl:1.9s"/>
  <circle class="s" cx="209" cy="43"  r=".7" fill="#ec4899" style="--d:3.1s;--dl:.8s"/>
  <circle class="s" cx="255" cy="58"  r=".5" fill="#fff"    style="--d:5.0s;--dl:2.2s"/>
  <circle class="s" cx="300" cy="36"  r="1.5" fill="#fff"   style="--d:6.1s;--dl:3.0s"/>
  <circle class="s" cx="345" cy="52"  r=".8" fill="#a78bfa" style="--d:3.6s;--dl:1.4s"/>
  <circle class="s" cx="390" cy="44"  r=".6" fill="#fff"    style="--d:4.2s;--dl:.3s"/>
  <circle class="s" cx="435" cy="60"  r="1.0" fill="#fff"   style="--d:5.3s;--dl:2.0s"/>
  <circle class="s" cx="480" cy="37"  r=".7" fill="#ec4899" style="--d:3.0s;--dl:1.1s"/>
  <circle class="s" cx="525" cy="49"  r=".9" fill="#fff"    style="--d:4.5s;--dl:.6s"/>
  <circle class="s" cx="570" cy="41"  r=".6" fill="#fff"    style="--d:3.7s;--dl:1.8s"/>
  <circle class="s" cx="615" cy="56"  r="1.2" fill="#a78bfa" style="--d:5.5s;--dl:2.7s"/>
  <circle class="s" cx="660" cy="39"  r=".8" fill="#fff"    style="--d:4.0s;--dl:.9s"/>
  <circle class="s" cx="705" cy="53"  r=".5" fill="#ec4899" style="--d:2.8s;--dl:1.5s"/>
  <circle class="s" cx="750" cy="45"  r=".7" fill="#fff"    style="--d:4.9s;--dl:.4s"/>
  <circle class="s" cx="795" cy="57"  r="1.0" fill="#fff"   style="--d:3.4s;--dl:2.3s"/>
  <circle class="s" cx="840" cy="40"  r=".6" fill="#a78bfa" style="--d:4.6s;--dl:1.0s"/>
  <circle class="s" cx="885" cy="51"  r=".8" fill="#fff"    style="--d:3.9s;--dl:.7s"/>

  <!-- ── lower stars ── -->
  <circle class="s" cx="42"  cy="72"  r=".7" fill="#fff"    style="--d:4.3s;--dl:2.0s"/>
  <circle class="s" cx="88"  cy="85"  r=".5" fill="#a78bfa" style="--d:3.2s;--dl:.6s"/>
  <circle class="s" cx="133" cy="70"  r=".9" fill="#fff"    style="--d:5.0s;--dl:1.7s"/>
  <circle class="s" cx="178" cy="82"  r=".6" fill="#ec4899" style="--d:3.8s;--dl:.3s"/>
  <circle class="s" cx="223" cy="75"  r=".8" fill="#fff"    style="--d:4.7s;--dl:2.4s"/>
  <circle class="s" cx="268" cy="88"  r=".5" fill="#fff"    style="--d:2.9s;--dl:1.0s"/>
  <circle class="s" cx="313" cy="71"  r="1.3" fill="#a78bfa" style="--d:5.9s;--dl:2.9s"/>
  <circle class="s" cx="358" cy="84"  r=".7" fill="#fff"    style="--d:3.5s;--dl:.8s"/>
  <circle class="s" cx="403" cy="76"  r=".6" fill="#fff"    style="--d:4.4s;--dl:1.5s"/>
  <circle class="s" cx="448" cy="89"  r="1.0" fill="#ec4899" style="--d:5.6s;--dl:3.1s"/>
  <circle class="s" cx="493" cy="73"  r=".8" fill="#fff"    style="--d:3.3s;--dl:.2s"/>
  <circle class="s" cx="538" cy="86"  r=".5" fill="#a78bfa" style="--d:4.1s;--dl:1.3s"/>
  <circle class="s" cx="583" cy="74"  r=".7" fill="#fff"    style="--d:3.7s;--dl:2.2s"/>
  <circle class="s" cx="628" cy="87"  r=".9" fill="#fff"    style="--d:4.8s;--dl:.5s"/>
  <circle class="s" cx="673" cy="72"  r=".6" fill="#ec4899" style="--d:3.1s;--dl:1.9s"/>
  <circle class="s" cx="718" cy="83"  r=".8" fill="#fff"    style="--d:5.2s;--dl:.9s"/>
  <circle class="s" cx="763" cy="77"  r=".5" fill="#a78bfa" style="--d:2.7s;--dl:1.6s"/>
  <circle class="s" cx="808" cy="85"  r="1.1" fill="#fff"   style="--d:4.5s;--dl:2.7s"/>
  <circle class="s" cx="853" cy="70"  r=".7" fill="#fff"    style="--d:3.6s;--dl:.4s"/>
  <circle class="s" cx="891" cy="82"  r=".6" fill="#a78bfa" style="--d:4.2s;--dl:1.1s"/>

  <!-- ── base stars ── -->
  <circle class="s" cx="60"  cy="100" r=".6" fill="#fff"    style="--d:4.0s;--dl:1.4s"/>
  <circle class="s" cx="110" cy="115" r=".8" fill="#a78bfa" style="--d:3.5s;--dl:.6s"/>
  <circle class="s" cx="160" cy="102" r=".5" fill="#fff"    style="--d:5.1s;--dl:2.3s"/>
  <circle class="s" cx="210" cy="120" r=".9" fill="#ec4899" style="--d:3.9s;--dl:.8s"/>
  <circle class="s" cx="260" cy="106" r=".7" fill="#fff"    style="--d:4.6s;--dl:1.5s"/>
  <circle class="s" cx="310" cy="118" r=".5" fill="#fff"    style="--d:2.8s;--dl:.3s"/>
  <circle class="s" cx="360" cy="101" r="1.2" fill="#a78bfa" style="--d:5.8s;--dl:2.8s"/>
  <circle class="s" cx="410" cy="113" r=".7" fill="#fff"    style="--d:3.4s;--dl:1.0s"/>
  <circle class="s" cx="460" cy="107" r=".6" fill="#fff"    style="--d:4.3s;--dl:.7s"/>
  <circle class="s" cx="510" cy="122" r=".8" fill="#ec4899" style="--d:5.4s;--dl:2.1s"/>
  <circle class="s" cx="560" cy="103" r=".5" fill="#fff"    style="--d:3.2s;--dl:1.2s"/>
  <circle class="s" cx="610" cy="116" r=".9" fill="#a78bfa" style="--d:4.7s;--dl:.5s"/>
  <circle class="s" cx="660" cy="109" r=".7" fill="#fff"    style="--d:3.8s;--dl:1.9s"/>
  <circle class="s" cx="710" cy="119" r=".6" fill="#fff"    style="--d:5.0s;--dl:.9s"/>
  <circle class="s" cx="760" cy="104" r="1.0" fill="#ec4899" style="--d:3.6s;--dl:2.6s"/>
  <circle class="s" cx="810" cy="114" r=".5" fill="#fff"    style="--d:4.4s;--dl:.4s"/>
  <circle class="s" cx="860" cy="108" r=".8" fill="#a78bfa" style="--d:3.0s;--dl:1.7s"/>
  <circle class="s" cx="895" cy="121" r=".6" fill="#fff"    style="--d:4.9s;--dl:1.1s"/>

  <!-- ── bright accent stars ── -->
  <circle class="s" cx="144" cy="47"  r="1.8" fill="#fff"   style="--d:6.5s;--dl:1.3s"/>
  <circle class="s" cx="333" cy="95"  r="2.0" fill="#a78bfa" style="--d:7.2s;--dl:3.4s"/>
  <circle class="s" cx="503" cy="28"  r="1.7" fill="#fff"   style="--d:5.9s;--dl:.6s"/>
  <circle class="s" cx="672" cy="68"  r="2.2" fill="#ec4899" style="--d:8.0s;--dl:2.0s"/>
  <circle class="s" cx="810" cy="33"  r="1.6" fill="#fff"   style="--d:6.3s;--dl:4.1s"/>
  <circle class="s" cx="440" cy="92"  r="1.9" fill="#a78bfa" style="--d:7.5s;--dl:1.8s"/>

  <!-- ── shooting stars ── -->
  <rect class="sh" x="0" y="27" width="70" height="1.5" rx=".8" fill="url(#sg)" style="--d:9s;--dl:0s"/>
  <rect class="sh" x="0" y="64" width="55" height="1"   rx=".5" fill="url(#sg)" style="--d:13s;--dl:4.5s"/>
  <rect class="sh" x="0" y="100" width="45" height="1.2" rx=".6" fill="url(#sg)" style="--d:11s;--dl:7.8s"/>
</svg>
